<svg xmlns="http://www.w3.org/2000/svg" viewBox="0 0 1000 1000" preserveAspectRatio="xMidYMid slice">
  <defs>
    <linearGradient id="g6sky" x1="0" y1="0" x2="0" y2="1">
      <stop offset="0" stop-color="#3D4F40"/>
      <stop offset="0.5" stop-color="#7C8773"/>
      <stop offset="1" stop-color="#D9D2BF"/>
    </linearGradient>
  </defs>
  <rect width="1000" height="1000" fill="url(#g6sky)"/>
  <!-- ridges -->
  <path d="M0 480 L150 420 L300 460 L500 400 L700 450 L850 410 L1000 460 L1000 1000 L0 1000 Z" fill="#5B6B4F" opacity="0.7"/>
  <path d="M0 580 L180 510 L380 560 L600 490 L820 550 L1000 510 L1000 1000 L0 1000 Z" fill="#3D4F40"/>
  <path d="M0 720 L240 640 L480 700 L740 620 L1000 680 L1000 1000 L0 1000 Z" fill="#1F2D24"/>
  <!-- balcony rail -->
  <rect x="0" y="800" width="1000" height="12" fill="#2E2418"/>
  <g stroke="#2E2418" stroke-width="6">
    <line x1="80" y1="800" x2="80" y2="1000"/>
    <line x1="240" y1="800" x2="240" y2="1000"/>
    <line x1="400" y1="800" x2="400" y2="1000"/>
    <line x1="560" y1="800" x2="560" y2="1000"/>
    <line x1="720" y1="800" x2="720" y2="1000"/>
    <line x1="880" y1="800" x2="880" y2="1000"/>
  </g>
  <rect x="0" y="940" width="1000" height="60" fill="#1A1A1A"/>
  <!-- plant -->
  <g transform="translate(740 720)">
    <rect x="0" y="60" width="80" height="80" fill="#9B7A4A"/>
    <path d="M40 60 Q-10 0 10 -50 Q40 -10 40 40 Z" fill="#3D4F40"/>
    <path d="M40 60 Q90 0 70 -40 Q40 -10 40 40 Z" fill="#5B6B4F"/>
    <path d="M40 60 Q40 -20 40 -60" stroke="#3D4F40" stroke-width="4" fill="none"/>
  </g>
</svg>
