<svg xmlns="http://www.w3.org/2000/svg" viewBox="0 0 800 1200" preserveAspectRatio="xMidYMid slice">
  <defs>
    <linearGradient id="g5sky" x1="0" y1="0" x2="0" y2="1">
      <stop offset="0" stop-color="#D9D2BF"/>
      <stop offset="0.4" stop-color="#7C8773"/>
      <stop offset="1" stop-color="#3D4F40"/>
    </linearGradient>
  </defs>
  <rect width="800" height="1200" fill="url(#g5sky)"/>
  <!-- canopy -->
  <g fill="#1F2D24">
    <ellipse cx="0" cy="100" rx="200" ry="180"/>
    <ellipse cx="800" cy="80" rx="240" ry="180"/>
    <ellipse cx="150" cy="320" rx="180" ry="160"/>
    <ellipse cx="700" cy="280" rx="220" ry="180"/>
  </g>
  <!-- tree trunks -->
  <g fill="#2E2418">
    <path d="M120 260 L150 1200 L100 1200 Z"/>
    <path d="M680 220 L710 1200 L660 1200 Z"/>
  </g>
  <!-- stone path -->
  <path d="M280 1200 Q400 800 400 600 Q400 460 380 380" stroke="#9B7A4A" stroke-width="180" fill="none" opacity="0.8"/>
  <g fill="#7C8773" opacity="0.7">
    <ellipse cx="380" cy="420" rx="70" ry="14"/>
    <ellipse cx="380" cy="500" rx="78" ry="16"/>
    <ellipse cx="395" cy="600" rx="84" ry="18"/>
    <ellipse cx="385" cy="720" rx="88" ry="20"/>
    <ellipse cx="370" cy="840" rx="92" ry="22"/>
    <ellipse cx="360" cy="960" rx="96" ry="24"/>
    <ellipse cx="345" cy="1080" rx="100" ry="26"/>
  </g>
  <!-- ferns -->
  <g stroke="#3D4F40" stroke-width="6" stroke-linecap="round" fill="none">
    <path d="M40 900 Q80 820 60 740"/>
    <path d="M50 900 Q90 850 120 800"/>
    <path d="M30 920 Q-20 870 -20 800"/>
    <path d="M740 950 Q780 870 760 790"/>
    <path d="M730 960 Q690 880 710 800"/>
  </g>
</svg>
