<svg xmlns="http://www.w3.org/2000/svg" viewBox="0 0 1000 1000" preserveAspectRatio="xMidYMid slice">
  <defs>
    <radialGradient id="g7glow" cx="0.5" cy="0.4" r="0.5">
      <stop offset="0" stop-color="#B85C2B" stop-opacity="0.7"/>
      <stop offset="1" stop-color="#1A1A1A" stop-opacity="0"/>
    </radialGradient>
  </defs>
  <rect width="1000" height="1000" fill="#1A1A1A"/>
  <rect width="1000" height="1000" fill="url(#g7glow)"/>
  <!-- table -->
  <rect x="0" y="640" width="1000" height="360" fill="#4A3920"/>
  <g stroke="#2E2418" stroke-width="1.5" opacity="0.7">
    <line x1="0" y1="700" x2="1000" y2="700"/>
    <line x1="0" y1="760" x2="1000" y2="760"/>
    <line x1="0" y1="820" x2="1000" y2="820"/>
    <line x1="0" y1="880" x2="1000" y2="880"/>
  </g>
  <!-- candle -->
  <g transform="translate(280 480)">
    <rect x="40" y="80" width="40" height="80" fill="#F2EDE0"/>
    <ellipse cx="60" cy="80" rx="20" ry="6" fill="#9B7A4A"/>
    <ellipse cx="60" cy="40" rx="14" ry="32" fill="#B85C2B" opacity="0.9"/>
    <ellipse cx="60" cy="35" rx="8" ry="18" fill="#F2EDE0" opacity="0.9"/>
  </g>
  <!-- teapot -->
  <g transform="translate(480 480)">
    <ellipse cx="100" cy="160" rx="100" ry="22" fill="#1A1A1A"/>
    <path d="M0 160 Q0 60 100 50 Q200 60 200 160 Z" fill="#F2EDE0"/>
    <path d="M0 100 Q-40 100 -40 120 Q-40 140 -10 140" stroke="#F2EDE0" stroke-width="12" fill="none" stroke-linecap="round"/>
    <path d="M180 90 Q220 90 220 120 Q220 150 180 150" stroke="#F2EDE0" stroke-width="10" fill="none" stroke-linecap="round"/>
    <ellipse cx="100" cy="44" rx="34" ry="8" fill="#9B7A4A"/>
    <rect x="92" y="28" width="16" height="16" fill="#9B7A4A"/>
  </g>
  <!-- cup -->
  <g transform="translate(740 580)">
    <ellipse cx="40" cy="50" rx="40" ry="10" fill="#1A1A1A"/>
    <path d="M0 50 Q0 0 40 0 Q80 0 80 50 Z" fill="#F2EDE0"/>
    <ellipse cx="40" cy="6" rx="32" ry="5" fill="#9B5821"/>
    <path d="M80 14 Q100 14 100 30 Q100 44 80 44" stroke="#F2EDE0" stroke-width="6" fill="none"/>
  </g>
</svg>
