<svg xmlns="http://www.w3.org/2000/svg" viewBox="0 0 1600 900" preserveAspectRatio="xMidYMid slice">
  <defs>
    <linearGradient id="g2sky" x1="0" y1="0" x2="0" y2="1">
      <stop offset="0" stop-color="#D9D2BF"/>
      <stop offset="1" stop-color="#F2EDE0"/>
    </linearGradient>
    <filter id="g2mist" x="-10%" y="-10%" width="120%" height="120%">
      <feGaussianBlur stdDeviation="10"/>
    </filter>
  </defs>
  <rect width="1600" height="900" fill="url(#g2sky)"/>
  <!-- distant ridges -->
  <path d="M0 380 L240 320 L480 360 L760 300 L1040 350 L1320 310 L1600 360 L1600 900 L0 900 Z" fill="#7C8773" opacity="0.6"/>
  <path d="M0 480 L280 420 L560 460 L860 400 L1140 450 L1420 410 L1600 460 L1600 900 L0 900 Z" fill="#5B6B4F" opacity="0.8"/>
  <!-- tea bush rows -->
  <g fill="#3D4F40">
    <ellipse cx="100" cy="600" rx="100" ry="22"/>
    <ellipse cx="320" cy="610" rx="100" ry="22"/>
    <ellipse cx="540" cy="600" rx="100" ry="22"/>
    <ellipse cx="760" cy="615" rx="100" ry="22"/>
    <ellipse cx="980" cy="600" rx="100" ry="22"/>
    <ellipse cx="1200" cy="615" rx="100" ry="22"/>
    <ellipse cx="1420" cy="600" rx="100" ry="22"/>
  </g>
  <g fill="#2B3C30">
    <ellipse cx="0" cy="700" rx="120" ry="26"/>
    <ellipse cx="220" cy="710" rx="120" ry="26"/>
    <ellipse cx="440" cy="700" rx="120" ry="26"/>
    <ellipse cx="660" cy="715" rx="120" ry="26"/>
    <ellipse cx="880" cy="700" rx="120" ry="26"/>
    <ellipse cx="1100" cy="715" rx="120" ry="26"/>
    <ellipse cx="1320" cy="700" rx="120" ry="26"/>
    <ellipse cx="1540" cy="715" rx="120" ry="26"/>
  </g>
  <g fill="#1F2D24">
    <ellipse cx="60" cy="810" rx="140" ry="30"/>
    <ellipse cx="320" cy="820" rx="140" ry="30"/>
    <ellipse cx="580" cy="810" rx="140" ry="30"/>
    <ellipse cx="840" cy="825" rx="140" ry="30"/>
    <ellipse cx="1100" cy="810" rx="140" ry="30"/>
    <ellipse cx="1360" cy="825" rx="140" ry="30"/>
    <ellipse cx="1600" cy="810" rx="140" ry="30"/>
  </g>
  <g filter="url(#g2mist)" opacity="0.7">
    <ellipse cx="800" cy="520" rx="700" ry="22" fill="#F2EDE0"/>
    <ellipse cx="400" cy="550" rx="400" ry="14" fill="#F2EDE0"/>
  </g>
</svg>
