<?xml version="1.0" standalone="no"?>
<!DOCTYPE svg PUBLIC "-//W3C//DTD SVG 20010904//EN"
 "http://www.w3.org/TR/2001/REC-SVG-20010904/DTD/svg10.dtd">
<svg version="1.0" xmlns="http://www.w3.org/2000/svg"
 width="880pt" height="880pt" viewBox="100 140 880 880"
 preserveAspectRatio="xMidYMid meet">

<g transform="translate(0.000000,1051.000000) scale(0.100000,-0.100000)"
fill="#000000" stroke="none">
<path d="M5122 8962 c-9 -9 -68 -105 -131 -212 -62 -107 -143 -247 -180 -310
-37 -63 -94 -160 -125 -215 -32 -55 -80 -136 -106 -180 -26 -44 -84 -145 -130
-225 -46 -80 -93 -161 -105 -180 -12 -19 -52 -87 -88 -150 -66 -117 -111 -194
-397 -685 -89 -154 -170 -293 -180 -310 -9 -16 -123 -213 -253 -436 -131 -223
-237 -415 -237 -426 0 -22 18 -48 40 -55 33 -11 59 13 113 104 84 144 158 269
180 308 10 19 34 60 52 90 18 30 64 109 102 175 38 66 121 208 183 315 63 107
128 220 145 250 18 30 161 278 319 550 159 272 331 569 384 660 52 91 116 201
142 245 44 73 85 144 249 427 31 54 58 98 61 98 3 0 56 -80 118 -178 63 -97
172 -267 243 -377 71 -110 183 -283 248 -385 65 -102 222 -345 348 -540 290
-451 885 -1374 982 -1525 68 -108 75 -115 105 -115 35 0 66 25 66 54 0 16 -38
79 -237 386 -41 63 -164 255 -274 425 -110 171 -235 364 -277 430 -229 353
-330 509 -352 545 -14 22 -95 148 -180 280 -85 132 -175 272 -200 310 -351
549 -550 854 -564 862 -19 13 -45 9 -64 -10z"/>
<path d="M4904 8173 c-131 -225 -268 -460 -305 -523 -64 -111 -594 -1019 -703
-1205 -30 -49 -85 -144 -123 -210 -39 -66 -124 -212 -190 -325 -66 -113 -122
-213 -126 -222 -7 -20 17 -43 37 -35 7 3 44 57 81 121 l68 116 236 0 c130 0
320 3 424 7 l187 6 0 25 0 24 -405 -7 c-223 -4 -405 -4 -405 -1 0 4 19 40 43
81 l42 75 572 0 573 0 2 -201 3 -201 278 1 c153 1 284 5 292 8 10 3 15 20 15
52 l0 48 243 7 c133 4 370 11 527 16 157 5 355 9 440 10 l155 0 28 -44 c34
-55 50 -68 71 -60 27 10 18 40 -41 131 -31 48 -75 117 -98 153 -23 36 -192
298 -374 583 -183 285 -342 533 -354 552 -12 18 -52 80 -88 137 -37 56 -128
200 -204 318 -76 118 -167 260 -202 315 -36 55 -112 174 -170 265 -219 342
-252 390 -271 390 -14 0 -78 -101 -258 -407z m402 100 c71 -112 153 -240 182
-285 l53 -83 -83 -6 c-46 -4 -211 -10 -367 -14 l-284 -7 30 53 c16 30 81 142
144 249 64 107 130 221 148 253 19 32 37 55 41 50 4 -4 65 -99 136 -210z m467
-730 l197 -308 -382 -5 c-211 -3 -389 -9 -396 -13 -6 -5 -12 -15 -12 -23 0
-15 66 -17 580 -14 272 1 236 15 327 -127 32 -51 86 -136 121 -190 374 -580
433 -677 414 -684 -10 -4 -159 -10 -331 -14 -171 -4 -314 -12 -317 -16 -3 -5
-2 -19 1 -30 6 -19 12 -21 49 -15 22 3 181 8 351 12 l310 6 65 -103 c36 -57
66 -106 68 -110 5 -11 -162 -19 -728 -34 -300 -8 -557 -15 -572 -15 l-28 0 -2
417 -3 416 -150 4 c-82 2 -213 0 -290 -4 l-140 -8 4 -267 3 -268 -556 0 -557
0 17 33 c9 17 71 124 137 237 396 678 478 818 547 935 42 72 84 144 93 162 34
65 23 63 313 63 l264 0 0 25 0 25 -250 0 c-137 0 -250 4 -250 8 0 4 24 48 53
97 l53 90 89 3 c173 5 600 19 655 20 l56 2 197 -307z m-331 -1125 c4 -465 3
-640 -4 -651 -5 -8 -81 -13 -242 -15 l-236 -4 0 446 0 446 163 3 c89 1 197 4
240 5 l77 2 2 -232z"/>
<path d="M6930 5549 c-98 -39 -103 -151 -10 -218 22 -16 82 -43 132 -60 106
-35 156 -66 165 -100 14 -57 -47 -91 -165 -91 -92 0 -145 19 -188 68 l-23 27
-1 -56 0 -57 93 -6 c111 -8 228 7 273 35 36 22 52 67 39 116 -9 39 -73 96
-131 117 -201 72 -238 94 -232 143 5 45 57 68 153 68 65 0 88 -5 121 -24 23
-13 48 -35 55 -50 14 -25 14 -25 17 23 5 78 9 76 -140 75 -73 0 -144 -5 -158
-10z"/>
<path d="M6187 5543 c-14 -4 -15 -8 -7 -18 7 -8 13 -94 17 -229 6 -199 5 -218
-12 -236 -18 -20 -17 -20 43 -20 59 0 88 12 57 24 -12 4 -15 24 -15 91 l0 85
28 0 c43 0 86 -33 120 -93 40 -70 74 -97 123 -97 46 0 49 9 10 31 -16 9 -41
39 -57 65 -15 27 -36 58 -46 70 -18 21 -18 21 20 32 103 31 151 153 94 240
-32 49 -79 62 -224 61 -73 -1 -141 -3 -151 -6z m270 -34 c27 -17 63 -80 63
-110 0 -47 -21 -99 -47 -116 -17 -11 -56 -19 -113 -23 l-88 -5 -6 44 c-3 24
-6 83 -6 132 l0 88 28 4 c47 9 147 0 169 -14z"/>
<path d="M5720 5531 c0 -5 6 -11 13 -13 9 -4 13 -61 15 -228 3 -204 2 -225
-14 -237 -16 -11 -16 -13 -1 -19 9 -3 52 -4 94 0 43 3 126 5 185 6 119 0 111
-6 123 83 3 26 3 47 -2 47 -4 0 -19 -18 -32 -40 -35 -56 -71 -70 -185 -70
l-96 0 0 110 0 110 56 0 c65 0 91 -12 106 -48 l11 -27 8 40 c11 57 11 113 -1
120 -5 3 -10 -1 -10 -9 0 -8 -12 -24 -27 -36 -22 -17 -38 -20 -87 -18 l-61 3
0 105 0 105 106 3 c104 3 108 2 139 -25 18 -15 42 -41 52 -58 l20 -30 -6 59
c-4 32 -9 63 -12 67 -7 12 -394 12 -394 0z"/>
<path d="M5124 5518 c-2 -4 0 -9 6 -13 14 -8 14 -452 0 -460 -21 -13 -9 -25
25 -25 36 0 43 8 24 27 -14 14 -26 393 -13 393 5 -1 36 -35 69 -77 77 -98 125
-153 135 -153 4 0 52 61 106 135 54 74 102 135 106 135 12 0 10 -418 -2 -425
-24 -15 -6 -25 44 -25 58 0 75 10 51 30 -12 10 -15 49 -15 229 0 155 3 220 12
229 9 9 1 12 -38 12 l-50 0 -88 -120 c-48 -65 -91 -122 -96 -125 -5 -3 -54 51
-109 119 -93 115 -104 125 -132 123 -17 -1 -33 -5 -35 -9z"/>
<path d="M4303 5512 c-95 -1 -173 -6 -173 -11 0 -5 4 -11 9 -13 5 -1 11 -104
13 -227 2 -173 0 -225 -9 -228 -7 -3 -13 -9 -13 -14 0 -5 83 -9 194 -9 l194 0
11 50 c6 28 11 61 10 73 0 22 0 21 -17 -3 -9 -14 -31 -40 -48 -57 l-32 -33
-111 0 -112 0 3 103 3 102 62 3 c59 3 63 2 85 -28 l23 -32 7 44 c3 23 7 59 7
78 l1 34 -28 -33 c-26 -32 -32 -34 -92 -35 l-65 -1 -3 108 -3 109 117 -4 c126
-3 125 -3 175 -78 9 -14 19 -23 22 -20 4 4 -12 110 -17 116 -5 7 -68 9 -213 6z"/>
<path d="M4786 5511 c-3 -4 -44 -109 -91 -232 -51 -134 -94 -231 -106 -241
-21 -18 -21 -18 16 -18 28 0 36 3 32 15 -6 14 38 149 56 173 6 8 41 12 111 12
l101 0 35 -87 c25 -62 31 -88 22 -91 -31 -10 -7 -22 46 -22 68 0 79 6 52 29
-16 14 -77 155 -177 409 -24 59 -27 62 -58 62 -19 0 -36 -4 -39 -9z m63 -156
c23 -55 41 -103 41 -107 0 -5 -40 -8 -90 -8 -58 0 -90 4 -90 11 0 25 83 220
90 212 5 -4 27 -53 49 -108z"/>
<path d="M6683 5509 c-31 -11 -38 -45 -17 -85 17 -32 17 -34 0 -53 -19 -21
-14 -61 7 -61 16 1 48 29 70 60 20 29 23 113 5 127 -22 17 -42 21 -65 12z"/>
<path d="M3801 5500 c-107 -4 -122 -7 -108 -19 15 -12 17 -40 17 -229 0 -186
-2 -218 -17 -234 -15 -17 -14 -18 45 -18 57 0 77 10 52 25 -5 3 -10 45 -10 92
l0 85 38 -7 c46 -8 76 -35 114 -103 37 -65 61 -82 115 -82 50 0 55 10 13 28
-18 8 -41 32 -56 60 -15 26 -35 59 -45 74 l-19 27 31 6 c44 10 107 70 119 114
13 50 -2 108 -39 144 -37 38 -80 44 -250 37z m173 -41 c54 -42 69 -107 42
-174 -20 -46 -47 -58 -149 -64 l-87 -6 0 133 0 132 84 0 c69 0 88 -3 110 -21z"/>
<path d="M3237 5478 c6 -8 13 -100 16 -225 4 -171 3 -215 -9 -230 -7 -10 -14
-22 -14 -26 0 -4 53 -5 118 -2 128 7 184 24 235 73 52 49 71 99 72 183 0 67
-3 81 -30 124 -17 27 -50 63 -74 80 -42 29 -45 30 -184 33 -116 3 -139 1 -130
-10z m216 -13 c15 -3 45 -21 67 -41 52 -47 74 -114 67 -201 -10 -126 -89 -203
-209 -203 l-58 0 0 224 0 225 38 3 c40 3 52 2 95 -7z"/>
<path d="M7405 4806 c17 -7 41 -25 54 -39 27 -30 23 60 46 -852 7 -297 12
-541 11 -543 -2 -1 -48 52 -102 119 -54 67 -111 135 -125 153 -15 17 -80 97
-145 177 -66 80 -236 289 -379 464 -143 174 -295 360 -337 413 -42 52 -84 99
-92 104 -9 5 -68 6 -132 2 -116 -7 -117 -7 -84 -23 18 -9 42 -28 53 -43 24
-32 21 28 38 -854 9 -480 9 -606 -1 -625 -15 -28 -50 -58 -67 -59 -7 0 -13 -5
-13 -11 0 -9 142 -8 220 1 3 0 -9 9 -27 20 -70 42 -67 11 -80 659 -7 323 -12
626 -10 676 l2 90 110 -135 c61 -74 158 -193 215 -264 58 -71 149 -182 202
-247 53 -64 145 -177 205 -251 59 -73 130 -160 158 -194 27 -33 102 -124 165
-202 l115 -142 130 1 130 0 -37 20 c-56 29 -69 55 -74 156 -13 259 -34 1342
-26 1364 12 29 38 54 72 68 19 7 -7 10 -100 10 -112 0 -122 -1 -95 -13z"/>
<path d="M5165 4789 c-264 -5 -491 -9 -505 -11 -24 -3 -23 -4 13 -25 20 -12
42 -34 47 -48 5 -14 14 -329 20 -726 11 -785 13 -751 -59 -789 l-36 -19 275
-1 c151 0 440 3 641 7 l367 6 6 36 c3 20 15 99 26 176 11 77 23 152 26 168 10
46 -10 30 -43 -35 -45 -91 -114 -181 -180 -232 -97 -77 -105 -78 -478 -86
-181 -4 -334 -3 -339 1 -6 5 -12 166 -14 378 l-5 370 26 6 c13 4 107 5 208 3
181 -3 185 -3 232 -31 51 -30 101 -96 112 -148 10 -45 25 -34 26 19 0 26 6
130 12 230 7 101 9 186 6 188 -4 2 -14 -16 -23 -40 -24 -63 -79 -121 -144
-153 -56 -27 -62 -28 -253 -32 l-196 -3 -6 143 c-4 79 -7 248 -7 375 l0 231
318 7 c271 6 326 5 376 -9 118 -31 217 -121 303 -274 28 -50 49 -78 51 -69 3
15 -33 228 -59 351 l-11 47 -126 -2 c-70 -1 -343 -5 -607 -9z"/>
<path d="M3375 4760 c-247 -5 -250 -5 -215 -23 71 -35 68 7 71 -782 4 -665 3
-713 -14 -738 -9 -15 -31 -34 -47 -42 -17 -9 -30 -17 -30 -19 0 -2 152 -1 338
1 442 5 528 22 692 133 242 164 359 387 360 681 0 139 -23 246 -76 352 -89
177 -251 325 -428 392 -85 32 -230 56 -326 53 -41 -1 -187 -5 -325 -8z m453
-45 c77 -18 181 -70 250 -125 99 -78 193 -231 233 -382 25 -92 36 -297 20
-394 -38 -243 -180 -459 -361 -548 -119 -58 -165 -67 -366 -73 l-181 -5 -6
762 c-4 419 -5 766 -1 771 9 15 341 11 412 -6z"/>
<path d="M5150 3091 c-286 -40 -513 -237 -601 -521 -26 -83 -27 -135 -14 -525
l7 -200 -36 -71 c-100 -200 -119 -413 -55 -621 23 -74 70 -176 99 -213 19 -25
19 -25 35 -5 25 32 91 175 111 240 15 47 19 91 19 205 -1 131 -3 153 -29 229
-29 90 -54 143 -93 202 -22 33 -23 44 -21 140 l3 103 48 -83 c57 -97 164 -209
250 -260 106 -62 187 -88 330 -106 l47 -6 0 -178 c0 -173 -1 -180 -25 -224
-44 -78 -82 -198 -96 -299 -20 -158 7 -316 82 -475 29 -61 31 -63 68 -63 36 0
40 3 69 58 48 89 73 192 79 322 8 173 -27 312 -112 452 l-35 57 2 178 3 178
55 6 c174 19 356 119 466 257 25 31 66 97 90 146 24 49 44 88 44 85 0 -2 3
-56 6 -119 l6 -115 -40 -75 c-57 -106 -83 -202 -89 -341 -6 -129 5 -215 42
-322 25 -69 88 -191 104 -202 22 -13 101 138 132 252 29 103 31 286 5 388 -20
77 -73 198 -107 247 -22 30 -23 39 -26 337 -3 231 -7 320 -19 366 -59 234
-193 403 -402 509 -106 54 -284 83 -402 67z m2 -113 c-69 -136 -61 -277 20
-389 24 -33 27 -43 16 -50 -7 -5 -16 -9 -20 -9 -3 0 -20 -11 -36 -25 l-30 -25
-56 55 c-99 99 -235 137 -366 101 -30 -8 -56 -13 -58 -11 -7 7 48 103 92 161
96 129 234 213 406 249 30 6 57 10 59 8 2 -1 -10 -31 -27 -65z m231 52 c126
-28 231 -86 327 -179 69 -68 140 -167 140 -197 0 -8 -13 -7 -42 3 -30 10 -68
14 -123 11 -105 -6 -177 -39 -253 -118 l-55 -58 -46 25 c-25 13 -46 27 -45 31
0 4 15 39 34 77 31 64 34 78 34 160 0 94 -20 163 -65 226 -33 47 -32 47 94 19z
m-104 -81 c35 -61 36 -68 36 -164 0 -92 -2 -104 -30 -154 -16 -30 -35 -56 -42
-59 -18 -5 -71 74 -88 131 -8 28 -15 70 -15 94 0 79 64 230 93 220 6 -2 27
-32 46 -68z m523 -329 c21 -6 40 -15 43 -21 4 -5 -22 -38 -57 -73 -51 -51 -76
-68 -118 -80 -89 -27 -236 -14 -248 22 -7 21 80 102 142 132 50 24 74 30 131
30 39 0 87 -5 107 -10z m-864 -50 c66 -35 125 -94 120 -120 -8 -40 -166 -52
-254 -19 -61 23 -164 112 -164 141 0 24 63 37 155 34 69 -2 89 -7 143 -36z
m972 -75 c16 -73 16 -231 1 -300 -14 -61 -50 -155 -66 -173 -9 -11 -15 -4 -29
33 -51 132 -197 240 -334 246 l-50 2 -4 54 c-3 54 -3 54 22 48 62 -14 151 -17
199 -5 69 16 164 81 203 137 35 52 39 49 58 -42z m-1255 -4 c95 -99 212 -137
338 -109 l65 15 4 -56 c2 -31 3 -57 2 -59 -1 -2 -22 -6 -46 -8 -91 -9 -185
-59 -248 -130 -28 -33 -57 -87 -84 -159 -6 -17 -14 -9 -43 49 -49 98 -73 200
-73 317 0 85 14 199 25 199 2 0 29 -27 60 -59z m666 -22 c57 -40 75 -118 44
-182 -21 -44 -59 -69 -111 -75 -130 -14 -199 163 -96 248 46 38 117 42 163 9z
m195 -210 c124 -22 227 -110 269 -229 13 -37 13 -38 -10 -44 -29 -7 -131 11
-170 31 -81 42 -136 108 -169 200 -20 58 -17 60 80 42z m-436 -41 c0 -39 -46
-124 -90 -168 -23 -23 -65 -53 -94 -66 -58 -27 -160 -42 -170 -26 -3 6 3 36
15 68 44 118 175 209 307 213 27 1 32 -3 32 -21z m333 -43 c56 -135 185 -224
328 -226 55 -1 58 -2 48 -21 -17 -32 -110 -122 -159 -155 -98 -66 -225 -113
-303 -113 l-38 0 26 38 c31 45 65 151 65 203 0 61 -20 139 -52 204 -17 32 -26
61 -21 62 6 2 25 15 43 28 19 14 36 25 39 25 3 0 14 -20 24 -45z m-252 8 c19
-9 35 -17 36 -18 2 -1 -10 -26 -26 -56 -71 -132 -62 -280 24 -400 19 -27 35
-51 35 -53 0 -5 -51 1 -130 16 -66 12 -161 54 -227 99 -53 37 -143 118 -143
129 0 4 24 10 53 14 28 4 72 13 97 22 95 31 196 132 221 222 6 23 15 42 19 42
4 0 22 -7 41 -17z m139 -108 c32 -63 35 -75 35 -159 0 -82 -3 -98 -32 -158
-18 -38 -37 -68 -43 -68 -17 0 -69 90 -87 149 -10 36 -14 76 -11 116 8 88 62
202 92 192 6 -2 27 -34 46 -72z m665 -428 c6 1 13 12 16 25 5 22 6 22 16 3 17
-31 54 -157 48 -163 -3 -3 -14 3 -25 13 -36 33 -34 6 4 -35 24 -27 36 -50 36
-70 0 -36 -6 -37 -37 -8 -39 36 -38 11 1 -32 35 -39 37 -44 31 -88 -7 -53 -40
-163 -62 -206 -13 -24 -17 -26 -28 -15 -21 21 -62 154 -75 242 -14 94 -1 229
32 327 20 60 23 63 28 35 3 -16 10 -29 15 -28z m-1404 -7 c5 0 9 11 9 25 0 47
18 25 47 -57 26 -77 28 -94 27 -233 0 -144 -1 -153 -33 -237 -18 -49 -36 -88
-41 -88 -8 0 -42 75 -55 120 -19 70 -20 67 9 41 40 -38 43 -16 3 32 -33 41
-60 117 -41 117 5 0 21 -14 36 -32 14 -18 30 -30 34 -26 4 4 -6 24 -22 44 -61
77 -59 66 -41 173 9 54 24 115 34 136 17 37 18 38 21 12 2 -15 8 -27 13 -27z
m750 -587 c50 -118 66 -307 35 -436 -17 -74 -54 -167 -66 -167 -8 0 -26 38
-51 109 -24 69 -24 78 1 56 34 -31 35 -7 2 34 -19 24 -34 56 -38 83 l-7 43 32
-29 c45 -43 49 -25 5 23 -36 41 -36 42 -30 104 7 63 20 119 37 166 9 23 11 24
20 8 14 -24 29 -12 29 24 0 41 8 36 31 -18z"/>
</g>
</svg>
